<mxfile host="Electron" agent="Mozilla/5.0 (X11; Linux x86_64) AppleWebKit/537.36 (KHTML, like Gecko) draw.io/26.0.4 Chrome/128.0.6613.186 Electron/32.2.5 Safari/537.36" version="26.0.4">
  <diagram name="Interactions" id="2YBvvXClWsGukQMizWep">
    <mxGraphModel dx="2512" dy="1277" grid="1" gridSize="10" guides="1" tooltips="1" connect="1" arrows="1" fold="1" page="1" pageScale="1" pageWidth="850" pageHeight="1100" math="0" shadow="0">
      <root>
        <mxCell id="0" />
        <mxCell id="1" parent="0" />
        <mxCell id="3tRgtoDUC-FlmFJSQtKY-12" value="&lt;b&gt;Visual Studio Code&amp;nbsp;&lt;span style=&quot;background-color: transparent; color: light-dark(rgb(0, 0, 0), rgb(255, 255, 255));&quot;&gt;Workspace&lt;/span&gt;&lt;/b&gt;" style="rounded=0;whiteSpace=wrap;html=1;verticalAlign=top;" vertex="1" parent="1">
          <mxGeometry x="37" y="90" width="230" height="169" as="geometry" />
        </mxCell>
        <mxCell id="aM9ryv3xv72pqoxQDRHE-1" value="VSCode" style="shape=umlLifeline;perimeter=lifelinePerimeter;whiteSpace=wrap;html=1;container=0;dropTarget=0;collapsible=0;recursiveResize=0;outlineConnect=0;portConstraint=eastwest;newEdgeStyle={&quot;edgeStyle&quot;:&quot;elbowEdgeStyle&quot;,&quot;elbow&quot;:&quot;vertical&quot;,&quot;curved&quot;:0,&quot;rounded&quot;:0};" parent="1" vertex="1">
          <mxGeometry x="182" y="552" width="100" height="300" as="geometry" />
        </mxCell>
        <mxCell id="aM9ryv3xv72pqoxQDRHE-2" value="" style="html=1;points=[];perimeter=orthogonalPerimeter;outlineConnect=0;targetShapes=umlLifeline;portConstraint=eastwest;newEdgeStyle={&quot;edgeStyle&quot;:&quot;elbowEdgeStyle&quot;,&quot;elbow&quot;:&quot;vertical&quot;,&quot;curved&quot;:0,&quot;rounded&quot;:0};" parent="aM9ryv3xv72pqoxQDRHE-1" vertex="1">
          <mxGeometry x="45" y="56" width="10" height="235" as="geometry" />
        </mxCell>
        <mxCell id="aM9ryv3xv72pqoxQDRHE-5" value="CsharpClassView&lt;div&gt;Server&lt;/div&gt;" style="shape=umlLifeline;perimeter=lifelinePerimeter;whiteSpace=wrap;html=1;container=0;dropTarget=0;collapsible=0;recursiveResize=0;outlineConnect=0;portConstraint=eastwest;newEdgeStyle={&quot;edgeStyle&quot;:&quot;elbowEdgeStyle&quot;,&quot;elbow&quot;:&quot;vertical&quot;,&quot;curved&quot;:0,&quot;rounded&quot;:0};" parent="1" vertex="1">
          <mxGeometry x="329" y="550" width="100" height="300" as="geometry" />
        </mxCell>
        <mxCell id="aM9ryv3xv72pqoxQDRHE-6" value="" style="html=1;points=[];perimeter=orthogonalPerimeter;outlineConnect=0;targetShapes=umlLifeline;portConstraint=eastwest;newEdgeStyle={&quot;edgeStyle&quot;:&quot;elbowEdgeStyle&quot;,&quot;elbow&quot;:&quot;vertical&quot;,&quot;curved&quot;:0,&quot;rounded&quot;:0};" parent="aM9ryv3xv72pqoxQDRHE-5" vertex="1">
          <mxGeometry x="45" y="64" width="10" height="208" as="geometry" />
        </mxCell>
        <mxCell id="aM9ryv3xv72pqoxQDRHE-7" value="Send .sln filepath" style="html=1;verticalAlign=bottom;endArrow=block;edgeStyle=elbowEdgeStyle;elbow=vertical;curved=0;rounded=0;" parent="1" edge="1">
          <mxGeometry relative="1" as="geometry">
            <mxPoint x="241" y="646" as="sourcePoint" />
            <Array as="points">
              <mxPoint x="286" y="647" />
            </Array>
            <mxPoint x="371" y="647" as="targetPoint" />
          </mxGeometry>
        </mxCell>
        <mxCell id="3tRgtoDUC-FlmFJSQtKY-11" value="" style="group" vertex="1" connectable="0" parent="1">
          <mxGeometry x="510" y="100" width="330" height="140" as="geometry" />
        </mxCell>
        <mxCell id="3tRgtoDUC-FlmFJSQtKY-10" value="&lt;b&gt;Server Process&lt;/b&gt;" style="rounded=0;whiteSpace=wrap;html=1;fillColor=none;verticalAlign=top;" vertex="1" parent="3tRgtoDUC-FlmFJSQtKY-11">
          <mxGeometry width="330" height="140" as="geometry" />
        </mxCell>
        <mxCell id="3tRgtoDUC-FlmFJSQtKY-2" value="DOTNET RUNTIME" style="rounded=0;whiteSpace=wrap;html=1;fontStyle=1;fontSize=14;fillColor=#e1d5e7;strokeColor=#9673a6;" vertex="1" parent="3tRgtoDUC-FlmFJSQtKY-11">
          <mxGeometry x="10" y="90" width="300" height="40" as="geometry" />
        </mxCell>
        <mxCell id="3tRgtoDUC-FlmFJSQtKY-3" value="CsharpClassView.dll" style="rounded=0;whiteSpace=wrap;html=1;fillColor=#f5f5f5;fontColor=#333333;strokeColor=#666666;" vertex="1" parent="3tRgtoDUC-FlmFJSQtKY-11">
          <mxGeometry x="10" y="30" width="150" height="60" as="geometry" />
        </mxCell>
        <mxCell id="3tRgtoDUC-FlmFJSQtKY-4" value="Roslyn Analyser APIs" style="rounded=0;whiteSpace=wrap;html=1;fillColor=#ffe6cc;strokeColor=#d79b00;" vertex="1" parent="3tRgtoDUC-FlmFJSQtKY-11">
          <mxGeometry x="160" y="30" width="150" height="60" as="geometry" />
        </mxCell>
        <mxCell id="3tRgtoDUC-FlmFJSQtKY-14" value="&lt;div&gt;GRPC http/2&lt;/div&gt;localhost&lt;div&gt;port &#39;M&#39;&lt;/div&gt;" style="ellipse;whiteSpace=wrap;html=1;aspect=fixed;fontSize=10;" vertex="1" parent="1">
          <mxGeometry x="350" y="130" width="80" height="80" as="geometry" />
        </mxCell>
        <mxCell id="3tRgtoDUC-FlmFJSQtKY-16" style="edgeStyle=orthogonalEdgeStyle;rounded=0;orthogonalLoop=1;jettySize=auto;html=1;exitX=0;exitY=0.25;exitDx=0;exitDy=0;entryX=1;entryY=0;entryDx=0;entryDy=0;" edge="1" parent="1">
          <mxGeometry relative="1" as="geometry">
            <mxPoint x="510" y="192" as="sourcePoint" />
            <mxPoint x="418.2842712474619" y="198.7157287525381" as="targetPoint" />
            <Array as="points">
              <mxPoint x="510" y="199" />
              <mxPoint x="470" y="199" />
            </Array>
          </mxGeometry>
        </mxCell>
        <mxCell id="3tRgtoDUC-FlmFJSQtKY-18" style="edgeStyle=orthogonalEdgeStyle;rounded=0;orthogonalLoop=1;jettySize=auto;html=1;exitX=1;exitY=1;exitDx=0;exitDy=0;entryX=-0.002;entryY=0.287;entryDx=0;entryDy=0;entryPerimeter=0;" edge="1" parent="1" target="3tRgtoDUC-FlmFJSQtKY-10">
          <mxGeometry relative="1" as="geometry">
            <mxPoint x="416.9956643270504" y="140.34264326769937" as="sourcePoint" />
            <mxPoint x="507.96999999999997" y="140" as="targetPoint" />
          </mxGeometry>
        </mxCell>
        <mxCell id="3tRgtoDUC-FlmFJSQtKY-20" style="edgeStyle=orthogonalEdgeStyle;rounded=0;orthogonalLoop=1;jettySize=auto;html=1;entryX=0.156;entryY=0.129;entryDx=0;entryDy=0;entryPerimeter=0;" edge="1" parent="1" target="3tRgtoDUC-FlmFJSQtKY-14">
          <mxGeometry relative="1" as="geometry">
            <mxPoint x="267" y="140" as="sourcePoint" />
            <mxPoint x="358.79999999999995" y="140.20000000000005" as="targetPoint" />
          </mxGeometry>
        </mxCell>
        <mxCell id="3tRgtoDUC-FlmFJSQtKY-21" style="edgeStyle=orthogonalEdgeStyle;rounded=0;orthogonalLoop=1;jettySize=auto;html=1;exitX=0;exitY=1;exitDx=0;exitDy=0;entryX=1;entryY=0.637;entryDx=0;entryDy=0;entryPerimeter=0;" edge="1" parent="1" source="3tRgtoDUC-FlmFJSQtKY-14" target="3tRgtoDUC-FlmFJSQtKY-12">
          <mxGeometry relative="1" as="geometry">
            <mxPoint x="270" y="198" as="targetPoint" />
          </mxGeometry>
        </mxCell>
        <mxCell id="3tRgtoDUC-FlmFJSQtKY-65" value="" style="group" vertex="1" connectable="0" parent="1">
          <mxGeometry x="276" y="280" width="228" height="239" as="geometry" />
        </mxCell>
        <mxCell id="3tRgtoDUC-FlmFJSQtKY-22" value="&lt;b&gt;Filesystem&lt;/b&gt;&lt;div&gt;&lt;br&gt;&lt;/div&gt;" style="rounded=0;whiteSpace=wrap;html=1;fillColor=none;verticalAlign=top;align=center;" vertex="1" parent="3tRgtoDUC-FlmFJSQtKY-65">
          <mxGeometry width="228.00000000000003" height="239.00000000000003" as="geometry" />
        </mxCell>
        <mxCell id="3tRgtoDUC-FlmFJSQtKY-36" value="Solution&lt;div&gt;.sln&lt;/div&gt;" style="text;html=1;align=center;verticalAlign=middle;whiteSpace=wrap;rounded=0;strokeColor=default;fontSize=10;" vertex="1" parent="3tRgtoDUC-FlmFJSQtKY-65">
          <mxGeometry x="9.46964856230032" y="109.89389067524117" width="40.06389776357828" height="32.27652733118971" as="geometry" />
        </mxCell>
        <mxCell id="3tRgtoDUC-FlmFJSQtKY-63" style="edgeStyle=orthogonalEdgeStyle;rounded=0;orthogonalLoop=1;jettySize=auto;html=1;entryX=1;entryY=0.25;entryDx=0;entryDy=0;fontSize=10;" edge="1" parent="3tRgtoDUC-FlmFJSQtKY-65" source="3tRgtoDUC-FlmFJSQtKY-55" target="3tRgtoDUC-FlmFJSQtKY-36">
          <mxGeometry relative="1" as="geometry" />
        </mxCell>
        <mxCell id="3tRgtoDUC-FlmFJSQtKY-55" value="Project 1&amp;nbsp;&lt;span style=&quot;background-color: transparent; color: light-dark(rgb(0, 0, 0), rgb(255, 255, 255));&quot;&gt;.csproj&lt;/span&gt;" style="swimlane;fontStyle=0;childLayout=stackLayout;horizontal=1;startSize=30;horizontalStack=0;resizeParent=1;resizeParentMax=0;resizeLast=0;collapsible=1;marginBottom=0;whiteSpace=wrap;html=1;fontSize=10;" vertex="1" parent="3tRgtoDUC-FlmFJSQtKY-65">
          <mxGeometry x="110.72204472843451" y="28.43408360128618" width="101.98083067092652" height="99.16398713826368" as="geometry" />
        </mxCell>
        <mxCell id="3tRgtoDUC-FlmFJSQtKY-56" value="File_1.cs" style="text;strokeColor=none;fillColor=none;align=left;verticalAlign=middle;spacingLeft=4;spacingRight=4;overflow=hidden;points=[[0,0.5],[1,0.5]];portConstraint=eastwest;rotatable=0;whiteSpace=wrap;html=1;fontSize=10;" vertex="1" parent="3tRgtoDUC-FlmFJSQtKY-55">
          <mxGeometry y="30" width="101.98083067092652" height="23.054662379421224" as="geometry" />
        </mxCell>
        <mxCell id="3tRgtoDUC-FlmFJSQtKY-57" value="..." style="text;strokeColor=none;fillColor=none;align=left;verticalAlign=middle;spacingLeft=4;spacingRight=4;overflow=hidden;points=[[0,0.5],[1,0.5]];portConstraint=eastwest;rotatable=0;whiteSpace=wrap;html=1;fontSize=10;" vertex="1" parent="3tRgtoDUC-FlmFJSQtKY-55">
          <mxGeometry y="53.054662379421224" width="101.98083067092652" height="23.054662379421224" as="geometry" />
        </mxCell>
        <mxCell id="3tRgtoDUC-FlmFJSQtKY-58" value="File_N.cs" style="text;strokeColor=none;fillColor=none;align=left;verticalAlign=middle;spacingLeft=4;spacingRight=4;overflow=hidden;points=[[0,0.5],[1,0.5]];portConstraint=eastwest;rotatable=0;whiteSpace=wrap;html=1;fontSize=10;" vertex="1" parent="3tRgtoDUC-FlmFJSQtKY-55">
          <mxGeometry y="76.10932475884245" width="101.98083067092652" height="23.054662379421224" as="geometry" />
        </mxCell>
        <mxCell id="3tRgtoDUC-FlmFJSQtKY-64" style="edgeStyle=orthogonalEdgeStyle;rounded=0;orthogonalLoop=1;jettySize=auto;html=1;entryX=1;entryY=0.75;entryDx=0;entryDy=0;fontSize=10;" edge="1" parent="3tRgtoDUC-FlmFJSQtKY-65" source="3tRgtoDUC-FlmFJSQtKY-59" target="3tRgtoDUC-FlmFJSQtKY-36">
          <mxGeometry relative="1" as="geometry" />
        </mxCell>
        <mxCell id="3tRgtoDUC-FlmFJSQtKY-59" value="Project M&amp;nbsp;&lt;span style=&quot;background-color: transparent; color: light-dark(rgb(0, 0, 0), rgb(255, 255, 255));&quot;&gt;.csproj&lt;/span&gt;" style="swimlane;fontStyle=0;childLayout=stackLayout;horizontal=1;startSize=30;horizontalStack=0;resizeParent=1;resizeParentMax=0;resizeLast=0;collapsible=1;marginBottom=0;whiteSpace=wrap;html=1;fontSize=10;" vertex="1" parent="3tRgtoDUC-FlmFJSQtKY-65">
          <mxGeometry x="110.72204472843451" y="132.9485530546624" width="101.98083067092652" height="99.16398713826368" as="geometry" />
        </mxCell>
        <mxCell id="3tRgtoDUC-FlmFJSQtKY-60" value="File_1.cs" style="text;strokeColor=none;fillColor=none;align=left;verticalAlign=middle;spacingLeft=4;spacingRight=4;overflow=hidden;points=[[0,0.5],[1,0.5]];portConstraint=eastwest;rotatable=0;whiteSpace=wrap;html=1;fontSize=10;" vertex="1" parent="3tRgtoDUC-FlmFJSQtKY-59">
          <mxGeometry y="30" width="101.98083067092652" height="23.054662379421224" as="geometry" />
        </mxCell>
        <mxCell id="3tRgtoDUC-FlmFJSQtKY-61" value="..." style="text;strokeColor=none;fillColor=none;align=left;verticalAlign=middle;spacingLeft=4;spacingRight=4;overflow=hidden;points=[[0,0.5],[1,0.5]];portConstraint=eastwest;rotatable=0;whiteSpace=wrap;html=1;fontSize=10;" vertex="1" parent="3tRgtoDUC-FlmFJSQtKY-59">
          <mxGeometry y="53.054662379421224" width="101.98083067092652" height="23.054662379421224" as="geometry" />
        </mxCell>
        <mxCell id="3tRgtoDUC-FlmFJSQtKY-62" value="File_N.cs" style="text;strokeColor=none;fillColor=none;align=left;verticalAlign=middle;spacingLeft=4;spacingRight=4;overflow=hidden;points=[[0,0.5],[1,0.5]];portConstraint=eastwest;rotatable=0;whiteSpace=wrap;html=1;fontSize=10;" vertex="1" parent="3tRgtoDUC-FlmFJSQtKY-59">
          <mxGeometry y="76.10932475884245" width="101.98083067092652" height="23.054662379421224" as="geometry" />
        </mxCell>
        <mxCell id="3tRgtoDUC-FlmFJSQtKY-66" style="edgeStyle=orthogonalEdgeStyle;rounded=0;orthogonalLoop=1;jettySize=auto;html=1;entryX=0.5;entryY=1;entryDx=0;entryDy=0;" edge="1" parent="1" source="3tRgtoDUC-FlmFJSQtKY-22" target="3tRgtoDUC-FlmFJSQtKY-12">
          <mxGeometry relative="1" as="geometry" />
        </mxCell>
        <mxCell id="3tRgtoDUC-FlmFJSQtKY-100" value="OPEN" style="edgeLabel;html=1;align=center;verticalAlign=middle;resizable=0;points=[];" vertex="1" connectable="0" parent="3tRgtoDUC-FlmFJSQtKY-66">
          <mxGeometry x="0.3023" y="3" relative="1" as="geometry">
            <mxPoint as="offset" />
          </mxGeometry>
        </mxCell>
        <mxCell id="3tRgtoDUC-FlmFJSQtKY-67" value="Tree View" style="swimlane;fontStyle=0;childLayout=stackLayout;horizontal=1;startSize=30;horizontalStack=0;resizeParent=1;resizeParentMax=0;resizeLast=0;collapsible=1;marginBottom=0;whiteSpace=wrap;html=1;fillColor=#f5f5f5;fontColor=#333333;strokeColor=#666666;" vertex="1" parent="1">
          <mxGeometry x="79" y="127" width="146" height="120" as="geometry" />
        </mxCell>
        <mxCell id="3tRgtoDUC-FlmFJSQtKY-68" value="Projects" style="text;strokeColor=none;fillColor=none;align=left;verticalAlign=middle;spacingLeft=4;spacingRight=4;overflow=hidden;points=[[0,0.5],[1,0.5]];portConstraint=eastwest;rotatable=0;whiteSpace=wrap;html=1;" vertex="1" parent="3tRgtoDUC-FlmFJSQtKY-67">
          <mxGeometry y="30" width="146" height="30" as="geometry" />
        </mxCell>
        <mxCell id="3tRgtoDUC-FlmFJSQtKY-69" value="Namespaces" style="text;strokeColor=none;fillColor=none;align=left;verticalAlign=middle;spacingLeft=4;spacingRight=4;overflow=hidden;points=[[0,0.5],[1,0.5]];portConstraint=eastwest;rotatable=0;whiteSpace=wrap;html=1;" vertex="1" parent="3tRgtoDUC-FlmFJSQtKY-67">
          <mxGeometry y="60" width="146" height="30" as="geometry" />
        </mxCell>
        <mxCell id="3tRgtoDUC-FlmFJSQtKY-70" value="Classes, Interfaces, etc" style="text;strokeColor=none;fillColor=none;align=left;verticalAlign=middle;spacingLeft=4;spacingRight=4;overflow=hidden;points=[[0,0.5],[1,0.5]];portConstraint=eastwest;rotatable=0;whiteSpace=wrap;html=1;" vertex="1" parent="3tRgtoDUC-FlmFJSQtKY-67">
          <mxGeometry y="90" width="146" height="30" as="geometry" />
        </mxCell>
        <mxCell id="3tRgtoDUC-FlmFJSQtKY-73" value="Roslyn APIs" style="shape=umlLifeline;perimeter=lifelinePerimeter;whiteSpace=wrap;html=1;container=0;dropTarget=0;collapsible=0;recursiveResize=0;outlineConnect=0;portConstraint=eastwest;newEdgeStyle={&quot;edgeStyle&quot;:&quot;elbowEdgeStyle&quot;,&quot;elbow&quot;:&quot;vertical&quot;,&quot;curved&quot;:0,&quot;rounded&quot;:0};" vertex="1" parent="1">
          <mxGeometry x="629" y="550" width="100" height="300" as="geometry" />
        </mxCell>
        <mxCell id="3tRgtoDUC-FlmFJSQtKY-74" value="" style="html=1;points=[];perimeter=orthogonalPerimeter;outlineConnect=0;targetShapes=umlLifeline;portConstraint=eastwest;newEdgeStyle={&quot;edgeStyle&quot;:&quot;elbowEdgeStyle&quot;,&quot;elbow&quot;:&quot;vertical&quot;,&quot;curved&quot;:0,&quot;rounded&quot;:0};" vertex="1" parent="3tRgtoDUC-FlmFJSQtKY-73">
          <mxGeometry x="45" y="65" width="10" height="204" as="geometry" />
        </mxCell>
        <mxCell id="3tRgtoDUC-FlmFJSQtKY-75" value="MSBuildWorkspace&lt;div&gt;.OpenSolutionAsync(.sln file)&lt;/div&gt;" style="html=1;verticalAlign=bottom;endArrow=block;edgeStyle=elbowEdgeStyle;elbow=vertical;curved=0;rounded=0;" edge="1" parent="1">
          <mxGeometry relative="1" as="geometry">
            <mxPoint x="386" y="659" as="sourcePoint" />
            <Array as="points">
              <mxPoint x="471" y="659" />
            </Array>
            <mxPoint x="672" y="659" as="targetPoint" />
          </mxGeometry>
        </mxCell>
        <mxCell id="aM9ryv3xv72pqoxQDRHE-3" value="Open&amp;nbsp;&lt;span style=&quot;background-color: light-dark(#ffffff, var(--ge-dark-color, #121212)); color: light-dark(rgb(0, 0, 0), rgb(255, 255, 255));&quot;&gt;Solution&lt;/span&gt;" style="html=1;verticalAlign=bottom;startArrow=oval;endArrow=block;startSize=8;edgeStyle=elbowEdgeStyle;elbow=vertical;curved=0;rounded=0;" parent="1" edge="1">
          <mxGeometry relative="1" as="geometry">
            <mxPoint x="80" y="632" as="sourcePoint" />
            <mxPoint x="227" y="632" as="targetPoint" />
          </mxGeometry>
        </mxCell>
        <mxCell id="3tRgtoDUC-FlmFJSQtKY-79" value="Microsoft.CodeAnalysis&lt;div&gt;Solution&lt;/div&gt;" style="html=1;verticalAlign=bottom;endArrow=block;edgeStyle=elbowEdgeStyle;elbow=vertical;curved=0;rounded=0;" edge="1" parent="1" target="3tRgtoDUC-FlmFJSQtKY-81">
          <mxGeometry relative="1" as="geometry">
            <mxPoint x="672" y="704" as="sourcePoint" />
            <Array as="points">
              <mxPoint x="569" y="704" />
            </Array>
            <mxPoint x="491" y="704" as="targetPoint" />
          </mxGeometry>
        </mxCell>
        <mxCell id="3tRgtoDUC-FlmFJSQtKY-80" value="&lt;b&gt;SolutionTreeType&lt;/b&gt;: &lt;i&gt;SortedDictionary&amp;lt;RoslynProject, SortedDictionary&amp;lt;RoslynNamespace, HashSet&amp;lt;IRoslynUnit&amp;gt;&amp;gt;&amp;gt;&lt;/i&gt;" style="text;html=1;align=center;verticalAlign=middle;resizable=0;points=[];autosize=1;strokeColor=none;fillColor=none;" vertex="1" parent="1">
          <mxGeometry x="90" y="864" width="639" height="26" as="geometry" />
        </mxCell>
        <mxCell id="3tRgtoDUC-FlmFJSQtKY-81" value="" style="html=1;points=[];perimeter=orthogonalPerimeter;outlineConnect=0;targetShapes=umlLifeline;portConstraint=eastwest;newEdgeStyle={&quot;edgeStyle&quot;:&quot;elbowEdgeStyle&quot;,&quot;elbow&quot;:&quot;vertical&quot;,&quot;curved&quot;:0,&quot;rounded&quot;:0};" vertex="1" parent="1">
          <mxGeometry x="505" y="685" width="10" height="134" as="geometry" />
        </mxCell>
        <mxCell id="3tRgtoDUC-FlmFJSQtKY-82" value="Map &#39;Solution&#39; to&amp;nbsp;&lt;div&gt;&lt;span style=&quot;background-color: light-dark(#ffffff, var(--ge-dark-color, #121212)); color: light-dark(rgb(0, 0, 0), rgb(255, 255, 255));&quot;&gt;&#39;&lt;/span&gt;&lt;span style=&quot;color: light-dark(rgb(0, 0, 0), rgb(255, 255, 255)); background-color: rgb(251, 251, 251);&quot;&gt;SolutionTreeType&lt;/span&gt;&lt;b style=&quot;color: light-dark(rgb(0, 0, 0), rgb(255, 255, 255)); background-color: rgb(251, 251, 251);&quot;&gt;&#39;&lt;/b&gt;&lt;/div&gt;" style="html=1;verticalAlign=bottom;endArrow=block;edgeStyle=elbowEdgeStyle;elbow=vertical;curved=0;rounded=0;fontSize=11;" edge="1" parent="1">
          <mxGeometry relative="1" as="geometry">
            <mxPoint x="505" y="743" as="sourcePoint" />
            <Array as="points">
              <mxPoint x="441" y="744" />
            </Array>
            <mxPoint x="385.2222222222224" y="744" as="targetPoint" />
          </mxGeometry>
        </mxCell>
        <mxCell id="3tRgtoDUC-FlmFJSQtKY-83" value="Return&amp;nbsp;&lt;span style=&quot;background-color: rgb(251, 251, 251);&quot;&gt;SolutionTreeType&lt;/span&gt;&lt;div&gt;&lt;span style=&quot;background-color: rgb(251, 251, 251);&quot;&gt;In Response DTO&lt;/span&gt;&lt;/div&gt;" style="html=1;verticalAlign=bottom;endArrow=block;edgeStyle=elbowEdgeStyle;elbow=vertical;curved=0;rounded=0;fontSize=10;" edge="1" parent="1">
          <mxGeometry x="0.0014" relative="1" as="geometry">
            <mxPoint x="365.89" y="791" as="sourcePoint" />
            <Array as="points">
              <mxPoint x="301.89" y="792" />
            </Array>
            <mxPoint x="246.11222222222239" y="792" as="targetPoint" />
            <mxPoint as="offset" />
          </mxGeometry>
        </mxCell>
        <mxCell id="3tRgtoDUC-FlmFJSQtKY-91" value="" style="endArrow=classic;html=1;rounded=0;entryX=1;entryY=0.5;entryDx=0;entryDy=0;" edge="1" parent="1" source="aM9ryv3xv72pqoxQDRHE-2" target="3tRgtoDUC-FlmFJSQtKY-94">
          <mxGeometry width="50" height="50" relative="1" as="geometry">
            <mxPoint x="221" y="824" as="sourcePoint" />
            <mxPoint x="102" y="825" as="targetPoint" />
          </mxGeometry>
        </mxCell>
        <mxCell id="3tRgtoDUC-FlmFJSQtKY-92" value="Map GRPC Response&lt;div&gt;into a Tree View UI&lt;/div&gt;" style="edgeLabel;html=1;align=center;verticalAlign=middle;resizable=0;points=[];" vertex="1" connectable="0" parent="3tRgtoDUC-FlmFJSQtKY-91">
          <mxGeometry x="0.2701" y="1" relative="1" as="geometry">
            <mxPoint x="21" y="-20" as="offset" />
          </mxGeometry>
        </mxCell>
        <mxCell id="3tRgtoDUC-FlmFJSQtKY-94" value="" style="ellipse;whiteSpace=wrap;html=1;aspect=fixed;fillStyle=auto;fillColor=#000000;strokeColor=default;" vertex="1" parent="1">
          <mxGeometry x="79" y="823" width="5" height="5" as="geometry" />
        </mxCell>
        <mxCell id="3tRgtoDUC-FlmFJSQtKY-95" style="edgeStyle=orthogonalEdgeStyle;rounded=0;orthogonalLoop=1;jettySize=auto;html=1;exitX=0.5;exitY=1;exitDx=0;exitDy=0;entryX=1;entryY=0.5;entryDx=0;entryDy=0;" edge="1" parent="1" source="3tRgtoDUC-FlmFJSQtKY-10" target="3tRgtoDUC-FlmFJSQtKY-22">
          <mxGeometry relative="1" as="geometry" />
        </mxCell>
        <mxCell id="3tRgtoDUC-FlmFJSQtKY-102" value="MSBUILD&lt;div&gt;COMPILER&lt;/div&gt;" style="edgeLabel;html=1;align=center;verticalAlign=middle;resizable=0;points=[];" vertex="1" connectable="0" parent="3tRgtoDUC-FlmFJSQtKY-95">
          <mxGeometry x="-0.2751" y="4" relative="1" as="geometry">
            <mxPoint as="offset" />
          </mxGeometry>
        </mxCell>
        <mxCell id="3tRgtoDUC-FlmFJSQtKY-96" style="edgeStyle=orthogonalEdgeStyle;rounded=0;orthogonalLoop=1;jettySize=auto;html=1;exitX=1;exitY=0.25;exitDx=0;exitDy=0;entryX=0.25;entryY=1;entryDx=0;entryDy=0;" edge="1" parent="1" source="3tRgtoDUC-FlmFJSQtKY-22" target="3tRgtoDUC-FlmFJSQtKY-10">
          <mxGeometry relative="1" as="geometry" />
        </mxCell>
        <mxCell id="3tRgtoDUC-FlmFJSQtKY-103" value="Compilation&lt;div&gt;Results&lt;/div&gt;" style="edgeLabel;html=1;align=center;verticalAlign=middle;resizable=0;points=[];" vertex="1" connectable="0" parent="3tRgtoDUC-FlmFJSQtKY-96">
          <mxGeometry x="0.2904" relative="1" as="geometry">
            <mxPoint as="offset" />
          </mxGeometry>
        </mxCell>
        <mxCell id="3tRgtoDUC-FlmFJSQtKY-98" value="Request for symbol information" style="text;html=1;align=center;verticalAlign=middle;resizable=0;points=[];autosize=1;strokeColor=none;fillColor=none;" vertex="1" parent="1">
          <mxGeometry x="303" y="100" width="184" height="26" as="geometry" />
        </mxCell>
        <mxCell id="3tRgtoDUC-FlmFJSQtKY-99" value="Symbol info&lt;div&gt;in hashtable for quick lookup&lt;/div&gt;" style="text;html=1;align=center;verticalAlign=middle;resizable=0;points=[];autosize=1;strokeColor=none;fillColor=none;" vertex="1" parent="1">
          <mxGeometry x="310" y="211" width="170" height="41" as="geometry" />
        </mxCell>
      </root>
    </mxGraphModel>
  </diagram>
</mxfile>
